<?xml version="1.0" standalone="no"?><!DOCTYPE svg PUBLIC "-//W3C//DTD SVG 1.1//EN" "http://www.w3.org/Graphics/SVG/1.1/DTD/svg11.dtd"><svg t="1514860906355" class="icon" style="" viewBox="0 0 1024 1024" version="1.1" xmlns="http://www.w3.org/2000/svg" p-id="1019" xmlns:xlink="http://www.w3.org/1999/xlink" width="16" height="16"><defs><style type="text/css"></style></defs><path d="M390.4 407.3152 32 407.3152l0-362.24 358.4 0L390.4 407.3152zM121.6 317.7152l208.64 0 0-212.48L121.6 105.2352 121.6 317.7152z" p-id="1020" fill="#ffffff"></path><path d="M151.04 165.3952l120.32 0 0 122.88-120.32 0 0-122.88Z" p-id="1021" fill="#ffffff"></path><path d="M390.4 979.4752 32 979.4752l0-362.24 358.4 0L390.4 979.4752zM121.6 919.3152l208.64 0 0-212.48L121.6 706.8352 121.6 919.3152z" p-id="1022" fill="#ffffff"></path><path d="M151.04 736.2752l120.32 0 0 122.88-120.32 0 0-122.88Z" p-id="1023" fill="#ffffff"></path><path d="M992 407.3152 633.6 407.3152l0-362.24 358.4 0L992 407.3152zM693.76 317.7152l208.64 0 0-212.48L693.76 105.2352 693.76 317.7152z" p-id="1024" fill="#ffffff"></path><path d="M752.64 165.3952l120.32 0 0 122.88-120.32 0 0-122.88Z" p-id="1025" fill="#ffffff"></path><path d="M32 407.3152l119.04 0 0 89.6-119.04 0 0-89.6Z" p-id="1026" fill="#ffffff"></path><path d="M271.36 496.9152l119.04 0 0 120.32-119.04 0 0-120.32Z" p-id="1027" fill="#ffffff"></path><path d="M513.28 45.0752l120.32 0 0 120.32-120.32 0 0-120.32Z" p-id="1028" fill="#ffffff"></path><path d="M390.4 288.2752l122.88 0 0 119.04-122.88 0 0-119.04Z" p-id="1029" fill="#ffffff"></path><path d="M513.28 859.1552l120.32 0 0 120.32-120.32 0 0-120.32Z" p-id="1030" fill="#ffffff"></path><path d="M752.64 859.1552l239.36 0 0 120.32-239.36 0 0-120.32Z" p-id="1031" fill="#ffffff"></path><path d="M513.28 617.2352l239.36 0 0 119.04-239.36 0 0-119.04Z" p-id="1032" fill="#ffffff"></path><path d="M752.64 617.2352l120.32 0 0 241.92-120.32 0 0-241.92Z" p-id="1033" fill="#ffffff"></path><path d="M842.24 617.2352l149.76 0 0 119.04-149.76 0 0-119.04Z" p-id="1034" fill="#ffffff"></path><path d="M513.28 407.3152l120.32 0 0 89.6-120.32 0 0-89.6Z" p-id="1035" fill="#ffffff"></path><path d="M633.6 496.9152l119.04 0 0 120.32-119.04 0 0-120.32Z" p-id="1036" fill="#ffffff"></path><path d="M752.64 407.3152l120.32 0 0 89.6-120.32 0 0-89.6Z" p-id="1037" fill="#ffffff"></path><path d="M872.96 496.9152l119.04 0 0 120.32-119.04 0 0-120.32Z" p-id="1038" fill="#ffffff"></path></svg>